<?xml version="1.0" encoding="utf-8"?>
<!-- Generator: Adobe Illustrator 26.2.1, SVG Export Plug-In . SVG Version: 6.00 Build 0)  -->
<svg version="1.1" id="Layer_1" xmlns="http://www.w3.org/2000/svg" xmlns:xlink="http://www.w3.org/1999/xlink" x="0px" y="0px"
	 viewBox="0 0 512 512" style="enable-background:new 0 0 512 512;" xml:space="preserve">
<style type="text/css">
	.st0{fill:url(#SVGID_1_);}
	.st1{fill:#FFFFFF;}
</style>
<linearGradient id="SVGID_1_" gradientUnits="userSpaceOnUse" x1="26" y1="256" x2="486" y2="256">
	<stop  offset="0" style="stop-color:#FE593C"/>
	<stop  offset="1" style="stop-color:#FE1342"/>
</linearGradient>
<path class="st0" d="M381.9,89.5l9.6-16.6l14.8,8.6c3.3,1.9,7.5,0.8,9.3-2.5l3.4-5.9c1.9-3.3,0.8-7.5-2.5-9.3l-47.4-27.4
	c-3.3-1.9-7.5-0.8-9.3,2.5l-3.4,5.9c-1.9,3.3-0.8,7.5,2.5,9.3l14.8,8.6L364.2,79c-28.1-15-59.7-24.4-93.2-26.5V30h25
	c5.5,0,10-4.5,10-10V10c0-5.5-4.5-10-10-10h-80c-5.5,0-10,4.5-10,10v10c0,5.5,4.5,10,10,10h25v22.5C207.4,54.7,175.9,64,147.8,79
	l-9.5-16.4l14.8-8.6c3.3-1.9,4.4-6.1,2.5-9.3l-3.4-5.9c-1.9-3.3-6.1-4.4-9.3-2.5L95.4,63.6c-3.3,1.9-4.4,6.1-2.5,9.3l3.4,5.9
	c1.9,3.3,6.1,4.4,9.3,2.5l14.8-8.6l9.6,16.6C67.4,130.6,26,201.5,26,282c0,127,103,230,230,230s230-103,230-230
	C486,201.5,444.6,130.6,381.9,89.5z"/>
<g>
	<path class="st1" d="M128.4,227c-0.5,1.4-0.9,2.7-1.3,4.1c-2.3,6.9-7.4,10.1-13.4,8.4c-5.6-1.6-9-8.2-7.3-14.8
		c3.7-14.3,10.2-27.1,19.3-38.7c9.6-12.4,21.6-21.9,35.2-29.5c2.5-1.4,5-2.8,7.2-2.6c5.9,0.1,9.6,2.2,11.1,7c1.6,5,0,9.9-4.6,12.6
		c-7.6,4.4-15.1,8.9-21.6,14.9C141.4,199.2,133.3,212.1,128.4,227z"/>
	<path class="st1" d="M190.2,412.1c-2.6,4.9-8.9,6.8-14.5,4.1c-16.8-8.1-30.5-19.9-41.3-35.1c-2.6-3.7-2.8-7.8-0.8-11.7
		c1.8-3.7,5.1-5.4,9.5-5.4c3.6-0.2,6.5,1.6,8.8,4.7c8.8,12.1,19.9,21.5,33.2,28.3C191.1,400.2,193.1,406.7,190.2,412.1z"/>
	<path class="st1" d="M216.8,174.3c9.8-2.8,17,2.7,15.3,11.9c-0.9,5.1-4.6,7.1-9.2,8.6c-24.6,7.9-43.2,23.2-54.2,46.7
		c-16,34.3-11.7,66.6,11.3,96.5c1.1,1.4,2.3,2.8,3.4,4.2c3.9,5.2,3.6,11.3-0.6,15.1c-4.6,4.1-10.8,3.9-15.3-1
		c-11.9-12.8-20.2-27.8-25.1-44.6c-2.9-10.1-4.1-20.4-4.4-28C137.8,232.1,170.6,187.8,216.8,174.3z"/>
	<path class="st1" d="M299.2,194.9c0.5-5.9,4.8-9.8,11.1-9.7c2.4-0.1,4.6,0.9,6.7,2.5c7.6,5.8,14.4,12.5,20.4,19.9
		c4.9,6.1,4.5,12.6-0.6,16.7c-5.1,4.1-11.2,2.9-16.2-3.5c-4.7-6-10.2-11.1-16.1-15.8C301.2,202.4,298.8,199.4,299.2,194.9z"/>
	<path class="st1" d="M365.2,301.6c-1.5,12-4.6,23.7-10.2,34.4c-21.1,40.5-54.5,61.3-99.9,62.6c-21.9,0.4-41.8-5.8-60.1-17.4
		c-4.4-2.8-7.3-6.2-6.7-11.9c0.8-6.6,6.9-10.8,13.2-8.7c2,0.7,3.9,1.7,5.7,2.8c36.2,22.1,80.5,17.5,110.8-12
		c13.2-12.9,21.6-28.9,25.1-47.2c0.4-2.1,0.7-4.2,1.2-6.3c1.3-6.2,6.3-10,11.9-9C362.1,290,366,295.2,365.2,301.6z"/>
	<path class="st1" d="M406,271.2c-0.5,5.5-4.2,9.4-9.8,9.6c-11.6,0.2-23.3,0.1-34.9,0.1v0.1c-11.3,0-22.6,0.1-33.9-0.1
		c-4.5-0.1-5.6,2-6.1,6.2c-2.7,25.8-16.2,44.5-39.8,54.5c-22.8,9.7-45.2,7.1-65.7-7.6c-6.5-4.6-8.1-11.4-4.4-16.6
		c3.7-5.2,10.5-5.4,17.1-0.7c27.2,19.7,64.2,5.5,71.1-27.3c5.3-25.3-12.9-50.4-38.8-53.7c-25.3-3.2-49.2,17-50.3,42.5
		c-0.4,9.6-6.1,14.9-13.6,12.6c-5.1-1.6-7.6-5.1-7.6-10.4c0.3-25.5,11.7-44.6,33.4-57.6c5.1-3,10.5-5.5,16.4-6.6
		c4-0.8,5.1-3,5.1-6.8c-0.1-16.7-0.1-33.4,0-50.1c0-8.2,3.8-12.7,10.5-12.8c6.4,0,10.6,5,10.6,12.9c0.1,16.5,0.1,33,0,49.5
		c0,4.1,1.2,5.9,5.4,6.9c21.8,5.4,37.3,18.5,46.1,39.2c1.5,3.6,3.6,4.7,7.3,4.7c22.2-0.1,44.4-0.1,66.6,0c2.5,0,5-0.1,7.5,0.7
		C403.1,261.9,406.4,266.4,406,271.2z"/>
</g>
</svg>
